<?xml version="1.0" encoding="UTF-8"?>
<svg width="245px" height="245px" viewBox="0 0 245 245" version="1.1" xmlns="http://www.w3.org/2000/svg" xmlns:xlink="http://www.w3.org/1999/xlink">
    <!-- Generator: Sketch 54.1 (76490) - https://sketchapp.com -->
    <title>Group 16</title>
    <desc>Created with Sketch.</desc>
    <g id="Page-1" stroke="none" stroke-width="1" fill="none" fill-rule="evenodd">
        <g id="Group-16">
            <rect id="Rectangle" fill="#F4F4F6" x="0" y="0" width="245" height="245"></rect>
            <g id="Group-4" transform="translate(18.600000, 15.100000)">
                <path d="M101.244287,130.588323 L137.325967,149.230714 C139.39089,150.381252 141.464822,151.990164 142.838312,153.599075 L185.357649,136.341011 C191.103505,134.039936 197.307191,134.273633 202.828729,137.033128 C206.276243,130.588277 207.658926,123.226677 206.509755,115.406702 C202.146581,85.7274336 190.879187,44.5312831 162.383876,30.7248315 L177.089591,16.2262164 C182.835448,10.7073175 178.930058,1.03543793 170.885905,1.03543793 L111.354236,1.03543793 C103.543549,1.03543793 99.6290122,10.6981132 105.15055,16.2262164 L119.856265,30.7248315 C91.5843536,44.7650723 80.3270718,85.9506379 75.7303867,115.406702 C75.2725109,119.31669 75.2725109,123.002092 75.9638064,126.67829 C84.6993467,125.294055 93.4259235,126.67829 101.245574,130.588277 L101.244287,130.588323 Z M145.138033,94.921656 L137.551664,94.921656 C128.816124,94.921656 121.696778,88.2522194 121.005436,79.7308775 C120.772017,75.3625162 122.154608,71.2187399 125.144292,67.9917119 C128.133976,64.7738883 132.039319,62.9311872 136.402493,62.6973979 L136.860369,62.6973979 L136.860369,55.7941721 C136.860369,55.3357519 137.318244,54.8773317 137.77612,54.8773317 L144.671148,54.8773317 C145.129024,54.8773317 145.586899,55.3357519 145.586899,55.7941721 L145.586899,62.6973979 L146.044775,62.6973979 C154.088974,62.9310951 160.75049,69.3668345 161.441832,77.196013 C161.441832,77.4297102 161.441832,77.6544332 161.208412,77.8881304 C160.974992,78.1218276 160.750536,78.1218276 160.517116,78.1218276 L153.622089,78.1218276 C153.164213,78.1218276 152.706337,77.8881304 152.706337,77.4297102 C152.248461,73.9780973 149.025312,71.2186478 145.35348,71.2186478 L137.075769,71.2186478 C135.010846,71.2186478 132.936914,72.1354883 131.563425,73.7535123 C130.180834,75.3624702 129.498502,77.4389145 129.956377,79.5062005 C130.414253,83.1916027 133.637403,85.9510521 137.542747,85.9510521 L145.129116,85.9510521 C153.864656,85.9510521 160.984002,92.6204887 161.675343,101.141831 C161.908763,105.510192 160.526172,109.653968 157.536488,112.880996 C154.546804,116.09882 150.64146,117.941521 146.278287,118.17531 L145.820411,118.17531 L145.820411,125.078536 C145.820411,125.536956 145.362535,125.995376 144.904659,125.995376 L138.009632,125.995376 C137.551756,125.995376 137.09388,125.536956 137.09388,125.078536 L137.09388,118.17531 L136.636004,118.17531 C128.591806,117.941613 121.93029,111.505874 121.238948,103.676695 C121.238948,103.442998 121.472368,103.218275 121.472368,102.984578 C121.705787,102.750881 121.930244,102.750881 122.163663,102.750881 L129.058691,102.750881 C129.516567,102.750881 129.974442,103.209301 129.974442,103.667721 C130.432318,107.119334 133.655468,109.878783 137.3273,109.878783 L145.371499,109.878783 C147.436422,109.878783 149.510354,108.961943 150.883844,107.343919 C152.266434,105.734961 152.948766,103.658517 152.490891,101.591231 C152.033015,97.6812435 148.818829,94.9217941 145.138033,94.9217941 L145.138033,94.921656 Z" id="Fill-1" fill="#FE9EBB"></path>
                <path d="M188.6976,140.822999 L146.178263,158.081064 C146.411683,160.382139 145.944843,162.683214 145.262511,165.218079 C142.506339,173.964006 133.986015,176.032258 125.259669,174.189557 L89.6353591,166.827957 C86.6456751,166.13584 84.5716508,166.369583 85.038674,163.376344 C85.7299695,160.383105 87.7948464,161.533643 90.7845304,162.225806 L132.827743,170.9727 C136.275257,171.664817 140.198895,166.59426 141.348066,163.376344 C142.497238,160.15852 140.89019,156.473118 137.900552,154.864206 L95.6160141,134.611937 C88.7209865,130.926535 80.2189578,130.243575 72.8661003,133.002979 L42.5302771,143.124028 L42.5212906,199.042465 L101.363456,212.848917 C113.088681,215.608369 125.496053,213.082614 135.146793,205.945691 L199.043014,158.773641 C202.257017,156.238777 203.873211,152.32879 203.18187,148.185013 C202.490574,145.200749 200.416734,142.666114 197.660561,141.281788 C194.901286,139.897185 191.678091,139.672462 188.6976,140.822999 Z" id="Fill-2" fill="#534C86"></path>
                <path d="M30.2278012,132.546538 L7.00994482,132.546538 C3.56242871,132.546538 0.806256335,135.305987 0.806256335,138.7576 L0.806256335,203.645624 C0.806256335,207.097237 3.56242871,209.856684 7.00994482,209.856684 L30.2278012,209.856684 C33.675315,209.856684 36.4314874,207.097234 36.4314874,203.645624 L36.4314874,138.7576 C36.4314874,135.305987 33.675315,132.546538 30.2278012,132.546538 Z" id="Fill-3" fill="#534C86"></path>
            </g>
        </g>
    </g>
</svg>