<?xml version="1.0" encoding="UTF-8"?>
<svg width="245px" height="245px" viewBox="0 0 245 245" version="1.1" xmlns="http://www.w3.org/2000/svg" xmlns:xlink="http://www.w3.org/1999/xlink">
    <!-- Generator: Sketch 54.1 (76490) - https://sketchapp.com -->
    <title>Group 14</title>
    <desc>Created with Sketch.</desc>
    <g id="Page-1" stroke="none" stroke-width="1" fill="none" fill-rule="evenodd">
        <g id="Group-14">
            <rect id="Rectangle" fill="#F4F4F6" x="0" y="0" width="245" height="245"></rect>
            <g id="Group-2" transform="translate(23.900000, 12.600000)">
                <g id="Group" transform="translate(99.000000, 143.500000) scale(-1, 1) translate(-99.000000, -143.500000) translate(0.000000, 66.000000)">
                    <polygon id="Path-41" fill="#E1E1F8" points="31 20 22 24 18 32 3 38 5 45 11 53 23 56 28 62 27 76 30 95 35 104 45 121 46 147 43 151 43 153 62 153 70 134 70 100 121 109 129 118 150 136 149 147 145 150 145 153 157 152 168 134 168 147 164 149 164 153 175 153 182 136 179 120 181 67 177 53 191 33 179 19 142 28 140 41 147 52 82 57"></polygon>
                    <g id="Group-3" fill="#534C86">
                        <path d="M164.156,139.671998 C163.5935,139.101678 162.86694,138.375118 162.0544,137.554798 C161.8591,137.359486 161.52316,137.421986 161.41378,137.679798 C160.32002,140.265798 155.62478,151.125198 155.62478,151.125198 L147.39818,151.125198 C147.3435,150.937698 147.33568,150.742378 147.38256,150.547078 C147.55444,149.875198 148.30444,149.250198 149.50756,148.781458 L149.49974,148.78927 C150.12474,148.54709 150.56224,147.97677 150.62474,147.31271 L151.67162,136.18771 C151.72632,135.64082 151.51538,135.09394 151.10912,134.72676 L147.74192,131.64856 C150.53872,131.33606 152.45292,130.68762 153.86692,129.9298 C154.09348,129.81262 154.14036,129.50012 153.96068,129.31262 C152.56224,127.88294 151.58568,126.88302 151.50748,126.81262 C149.9606,125.25012 144.31988,119.92982 140.24968,111.83602 C140.16374,111.66416 139.97624,111.58602 139.79656,111.6329 C138.47624,112.01572 136.69496,112.59384 135.14816,113.08602 C132.68716,113.87508 129.76536,114.60164 126.98416,115.31262 L126.98416,115.32044 C126.73416,115.38294 126.61698,115.6642 126.74198,115.89076 C127.61698,117.46888 128.70292,118.91416 129.96858,120.19536 L148.09358,136.726562 L147.21858,145.960962 C144.30458,147.460962 143.57018,149.820362 143.90618,151.648562 C144.2265,153.382942 145.49994,154.640762 146.93738,154.640762 L156.78118,154.640762 C157.4843,154.640762 158.11712,154.218882 158.39836,153.578262 L164.24216,140.101662 C164.30466,139.953224 164.2734,139.781342 164.15622,139.671982 L164.156,139.671998 Z" id="Fill-1"></path>
                        <path d="M197.422,31.718 C197.422,22.468 194.0314,14.1712 187.8752,8.358 C181.8752,2.694 173.5548,-0.2748 165.0472,0.2174 C156.016,0.73302 148.5004,4.233 143.3292,10.3346 C138.3604,16.194 136.0948,23.9128 136.9698,32.0526 C137.5948,37.8338 139.5322,42.7714 142.5402,46.6072 C132.048,46.57594 120.3142,47.81032 111.4462,48.74 C106.1962,49.29468 102.04,49.73218 99.8446,49.73218 C90.157,49.73218 73.8846,43.48998 69.2906,38.01338 C66.6188,34.82578 64.9624,31.45098 62.6656,26.78678 C61.72028,24.87272 60.6578,22.70078 59.3922,20.30238 C56.2828,14.40398 48.9234,7.26338 44.814,3.52898 C43.73588,2.55242 42.228,2.2321 40.853,2.67742 C39.47018,3.13054 38.4468,4.27898 38.1498,5.70082 L36.65762,12.95862 C36.49356,13.693 35.87638,14.23986 35.12638,14.31018 C27.68098,15.27894 20.26698,21.88838 16.493578,30.84918 C13.345178,32.28668 8.251378,34.37258 5.259178,35.37258 L5.259178,35.3804 C4.696678,34.70852 3.860738,34.32572 2.985778,34.34916 C2.110818,34.3726 1.290458,34.79448 0.7669784,35.48978 C0.2357384,36.1929 0.0560384,37.09134 0.2747984,37.93518 C0.4935584,38.78674 1.087298,39.48986 1.884178,39.84924 C1.89199,40.00548 1.899804,40.16956 1.923242,40.3258 C2.446682,43.8648 5.017042,50.529 9.712242,53.3492 C12.610642,55.05232 15.806042,56.1774 19.12624,56.6774 C22.84504,57.24772 25.68084,60.2946 26.00124,64.0368 L26.01686,64.19304 C26.095,65.26336 26.1028,66.91964 26.1028,69.01344 C26.11842,75.20884 26.14968,84.57584 28.00904,93.84144 C29.68092,102.17744 32.07144,105.94304 34.83724,110.29464 C35.39192,111.16964 35.97006,112.07588 36.5638,113.06024 C43.2904,124.17744 43.7122,138.076244 43.9466,145.544244 C43.95442,145.786424 43.96222,146.020804 43.97004,146.247364 C39.13404,149.856764 40.98564,153.536364 41.07164,153.700564 L41.06382,153.700564 C41.3685,154.278685 41.97006,154.638065 42.6185,154.638065 L61.5013,154.638065 C62.09506,154.638065 62.64192,154.341185 62.97006,153.841184 C63.13414,153.591184 67.04046,147.614584 70.15766,138.106784 C72.32946,131.48958 74.39986,122.15358 73.79826,111.65278 C89.22006,116.87158 108.82226,114.74658 123.03228,112.26216 C130.22768,110.64498 139.07908,107.44976 141.25888,107.32456 L141.337,107.32456 C141.81356,107.348 142.23544,107.64488 142.42294,108.08238 C145.85254,115.69958 150.93854,121.08238 153.53234,123.69178 C154.81358,124.97302 162.73554,133.41058 165.51674,135.98858 L166.19642,136.613584 C166.29016,136.691708 166.32922,136.808896 166.32142,136.933904 L165.63392,145.965104 C162.68072,147.488544 161.93072,149.871304 162.27452,151.715104 C162.58702,153.426044 163.80576,154.629104 165.24332,154.629104 L175.08712,154.629104 L175.0793,154.636916 C175.78242,154.636916 176.42306,154.215036 176.69648,153.566596 L180.43088,144.894796 C182.99328,138.863596 183.83708,132.2464 182.86048,125.7698 L181.96986,119.8244 C180.96986,113.1994 181.29018,106.4338 182.91518,99.9338 C185.14958,91.0042 186.49338,81.4494 186.19638,76.7078 C185.69638,68.7156 181.93078,58.0984 181.00878,55.6138 C189.03218,51.9498 197.42278,43.0748 197.42278,31.7158 L197.422,31.718 Z M25.156,25.1634 C25.57788,25.06966 26.02318,25.14778 26.38256,25.38996 C26.74194,25.62434 26.99194,25.99934 27.06224,26.42902 C27.14036,26.8509 27.0388,27.2884 26.7888,27.63996 C26.53098,27.98372 26.14036,28.21808 25.71848,28.27278 C24.82004,28.43684 23.44508,27.96028 23.28888,27.10872 C23.13262,26.24934 24.25764,25.32746 25.15606,25.1634 L25.156,25.1634 Z M23.87476,28.804 L23.88256,28.804 C24.61694,28.804 25.2888,29.24932 25.57006,29.93682 C25.8513,30.6165 25.69506,31.40558 25.17162,31.929 C24.64818,32.45244 23.86694,32.60868 23.17944,32.32744 C22.49194,32.0462 22.04662,31.37432 22.04662,30.63212 C22.04662,30.14774 22.24194,29.6868 22.58568,29.34306 C22.92944,28.99932 23.39036,28.804 23.88256,28.804 L23.87476,28.804 Z M35.82796,98.812 C35.19514,99.437 34.30452,99.73388 33.42176,99.61668 C33.27332,99.59324 33.14832,99.49168 33.10144,99.35886 C32.40612,97.32766 31.85926,95.25726 31.453,93.15566 C29.66394,84.22606 29.63268,75.06966 29.61706,69.00766 C29.60924,66.84366 29.60142,65.13266 29.51548,63.94526 L29.49986,63.74214 C29.05454,58.38274 24.99206,54.03114 19.67946,53.20314 C16.804462,52.76564 14.038862,51.7969 11.523262,50.33594 C7.757662,48.07814 5.742062,42.14834 5.406062,39.80474 L5.39825,39.80474 C5.33575,39.37506 5.60137,38.96098 6.01543,38.82818 C9.00763,37.85944 16.87483,34.45318 18.87483,33.42978 L18.867018,33.42978 C19.1092,33.3126 19.39826,33.32822 19.63264,33.46884 C25.17944,36.74224 31.46864,33.30478 35.46084,38.42204 C37.28896,40.76584 38.77324,46.62524 37.15616,59.12604 C34.85156,76.92284 43.45296,91.15804 35.82804,98.81404 L35.82796,98.812 Z M49.05456,151.116006 L44.28116,151.123818 C44.53898,150.451938 45.22648,149.576938 46.70296,148.623818 C47.21858,148.287878 47.52328,147.701938 47.50764,147.076938 C47.492,146.569118 47.46856,146.014438 47.45294,145.428498 C47.37482,143.006698 47.28106,139.936298 46.97638,136.490898 L46.96858,136.49871 C48.12482,136.49871 49.27318,136.37371 50.39818,136.12371 C50.92942,139.47531 51.281,142.85811 51.43724,146.25651 C49.94506,147.43619 49.07784,149.22531 49.05444,151.12371 L49.05456,151.116006 Z M60.51556,151.116006 L52.59376,151.123818 C52.57032,149.655058 53.79688,148.850418 54.07814,148.686218 L54.07814,148.678406 C54.63282,148.365906 54.9844,147.772166 54.97658,147.131526 C54.90626,144.029926 54.66408,140.936126 54.2422,137.858126 C57.7032,138.451866 63.7812,137.045626 67.3828,135.09252 C65.73436,140.686326 63.4296,146.069126 60.5156,151.123726 L60.51556,151.116006 Z M177.20356,143.514406 L173.93016,151.123806 L165.73476,151.123806 C165.6957,150.944118 165.7035,150.764426 165.7582,150.592566 C165.9457,149.897246 166.71914,149.256626 167.9378,148.787886 C168.57062,148.545706 169.00812,147.959766 169.0628,147.280066 L169.90656,136.155066 C169.94562,135.616 169.74248,135.09256 169.34406,134.72538 L166.32066,131.96758 C173.58626,131.43634 177.43006,128.31138 179.36744,126.17078 L179.38308,126.29578 L179.39088,126.29578 C180.26588,132.12398 179.50808,138.084786 177.20328,143.514586 L177.20356,143.514406 Z M161.99256,53.98252 C153.89876,53.79502 147.53156,50.44352 143.47696,44.88872 L143.47696,44.89654 C142.18008,43.14654 141.65664,40.94334 142.03164,38.80274 C142.89882,33.65434 149.61764,29.22454 154.53164,30.99814 C156.98484,31.88876 158.30504,33.79494 160.21924,34.02154 C161.10206,34.13872 161.99268,33.84966 162.63324,33.23248 C163.27386,32.6231 163.6098,31.75592 163.5473,30.87308 C163.22698,27.29488 165.8677,22.38868 173.6097,23.52148 C178.9847,24.30272 182.8909,29.08388 183.0785,35.04488 C183.42226,45.57608 174.3909,54.27928 161.9845,53.98248 L161.99256,53.98252 Z" id="Fill-2"></path>
                    </g>
                </g>
                <path d="M87,-2 C99.9924829,-2 112.455182,3.16282094 121.648462,12.3520351 C130.837216,21.5440209 136,34.0070076 136,47 C136,59.9924829 130.837179,72.4551815 121.647965,81.6484621 C112.455979,90.8372178 99.9929923,96.0000021 87.0000003,96 C74.0075172,96.0000021 61.5448184,90.8371811 52.3515379,81.6479649 C43.1627839,72.4559798 38,59.9929933 38,47 C38,34.0075162 43.1628206,21.5448178 52.3520351,12.3515378 C61.5442772,3.16252806 74.0063697,-2 87,-2 Z M86.3567528,75.921999 C88.2237601,75.9156783 89.7358249,74.4020012 89.73828,72.5392 C89.73828,71.1714338 88.9162439,69.9407913 87.6523445,69.4180478 C86.389794,68.8948672 84.9342773,69.1833298 83.9688936,70.1487136 C83.0034975,71.1141097 82.7150307,72.5696199 83.23872,73.8333534 C83.7614033,75.0970019 84.9919339,75.9209427 86.3567524,75.921999 Z M86.3567524,75.921999 C86.3576282,75.9219997 86.3585041,75.922 86.35938,75.922 L86.3541252,75.9220069 C86.3550011,75.9220046 86.355877,75.922002 86.3567528,75.921999 Z M91.0630794,50.1485769 L91.1700444,50.0419732 L91.6140937,49.8930274 C94.9322052,48.7800452 97.8021175,46.6271718 99.7985762,43.754202 C101.795491,40.8775477 102.810887,37.4339588 102.692943,33.9471236 C102.53261,29.6986231 100.741097,25.67922 97.69024,22.7258999 C94.6398999,19.7696907 90.5680899,18.1066462 86.32812,18.0788 L86.2278473,18.0787793 C83.1796888,18.0926596 80.192114,18.9685071 77.6131884,20.6042468 C75.0364684,22.2364776 72.9729013,24.5649147 71.6528733,27.3306216 C70.8475257,28.9999696 71.5476577,31.0028133 73.2205616,31.8086667 C74.8881914,32.6131855 76.8926026,31.91175 77.6947638,30.2489895 C79.278443,26.9286817 82.6194765,24.8094716 86.3369814,24.7899022 C91.5038599,24.8633864 95.7274305,28.9272702 95.9988803,34.1269019 C96.1371359,38.3722581 93.4702473,42.2049241 89.4292851,43.55023 C85.6262417,44.7919107 83.0384211,48.3209965 82.99994,52.301 L82.99994,56.5705 C82.99994,58.4230305 84.5029095,59.926 86.35544,59.926 C88.1531718,59.926 89.6217786,58.5105147 89.70703,56.7338278 L89.70703,52.301 C89.70703,51.312487 90.2046511,50.6996098 90.8818078,50.2589577 C90.9436513,50.2187137 91.0041075,50.1820514 91.0630794,50.1485769 Z" id="Fill-1" stroke="#F4F4F6" stroke-width="4" fill="#FE9EBB"></path>
            </g>
        </g>
    </g>
</svg>