<?xml version="1.0" encoding="UTF-8"?>
<svg width="245px" height="245px" viewBox="0 0 245 245" version="1.1" xmlns="http://www.w3.org/2000/svg" xmlns:xlink="http://www.w3.org/1999/xlink">
    <!-- Generator: Sketch 54.1 (76490) - https://sketchapp.com -->
    <title>Group 15</title>
    <desc>Created with Sketch.</desc>
    <g id="Page-1" stroke="none" stroke-width="1" fill="none" fill-rule="evenodd">
        <g id="Group-15">
            <rect id="Rectangle" fill="#F4F4F6" x="0" y="0" width="245" height="245"></rect>
            <g id="Group-5" transform="translate(32.700000, 13.000000)">
                <path d="M15.5321797,0 C6.90324006,0 0,6.87497227 0,15.4685776 L0,204.531422 C0,213.125027 6.90324006,220 15.5321797,220 L91.4678203,220 C100.09676,220 107,213.125027 107,204.531422 L107,15.4685776 C107,6.87497227 100.09676,0 91.4678203,0 L15.5321797,0 Z M53.5011045,7.03821161 C54.3639985,7.03821161 55.0629598,7.7343108 55.0629598,8.59367133 C55.0629598,9.45303187 54.3639985,10.1491311 53.5011045,10.1491311 C52.6382106,10.1491311 51.9392492,9.45303187 51.9392492,8.59367133 C51.9392492,7.7343108 52.6382106,7.03821161 53.5011045,7.03821161 Z M46.5978645,17.1874307 L60.4043446,17.1874307 C61.4398306,17.1874307 62.1301546,17.8749279 62.1301546,18.9061737 C62.1301546,19.9374196 61.4398306,20.6249168 60.4043446,20.6249168 L46.5978645,20.6249168 C45.5623785,20.6249168 44.8720544,19.9374196 44.8720544,18.9061737 C44.8720544,17.8749279 45.5623785,17.1874307 46.5978645,17.1874307 Z M39.5307139,17.5139973 C40.3936078,17.5139973 41.0925692,18.2100965 41.0925692,19.0694571 C41.0925692,19.9288176 40.3936078,20.6249168 39.5307139,20.6249168 C38.6678199,20.6249168 37.9688586,19.9288176 37.9688586,19.0694571 C37.9688586,18.2100965 38.6678199,17.5139973 39.5307139,17.5139973 Z M6.90324006,27.508557 L100.098085,27.508557 L100.098085,189.071505 L6.90324006,189.071505 L6.90324006,27.508557 Z M53.5006627,195.944278 C58.3329308,195.944278 62.1296023,199.725613 62.1296023,204.537874 C62.1296023,209.350135 58.3327098,213.131479 53.5006627,213.131479 C48.6686156,213.131479 44.8717231,209.350135 44.8717231,204.537874 C44.8717231,199.725613 48.6686156,195.944278 53.5006627,195.944278 Z" id="Fill-1" fill="#534C86"></path>
                <rect id="Rectangle" fill="#E1E1F8" x="11" y="31.7" width="85" height="55"></rect>
                <rect id="Rectangle" fill="#FE9EBB" x="11" y="163" width="85" height="22"></rect>
                <rect id="Rectangle" fill="#E1E1F8" x="11" y="91.5" width="40" height="25"></rect>
                <rect id="Rectangle" fill="#E1E1F8" x="56" y="91.5" width="40" height="25"></rect>
                <rect id="Rectangle" fill="#E1E1F8" x="11" y="121.2" width="40" height="25"></rect>
                <rect id="Rectangle" fill="#E1E1F8" x="56" y="121.2" width="40" height="25"></rect>
                <path d="M135.032743,195.876029 C93.8585561,189.446096 72.5119548,142.321379 95.0762841,109.956184 L98.7169194,104.73423 L98.7169194,111.1 C98.7169194,126.59402 100.736462,137.266677 105.640348,144.289242 C111.083077,152.083452 120.253822,155.292129 134.467136,153.386551 L134.744025,136.138377 L136.488982,134.220108 L188.332925,173.312885 L135.032743,213.087998 L135.032743,195.876029 Z" id="Fill-1" stroke="#F4F4F6" stroke-width="4" fill="#534C86" transform="translate(136.500000, 160.100000) scale(-1, 1) translate(-136.500000, -160.100000) "></path>
            </g>
        </g>
    </g>
</svg>