<?xml version="1.0" encoding="UTF-8"?>
<svg width="84px" height="21px" viewBox="0 0 84 21" version="1.1" xmlns="http://www.w3.org/2000/svg" xmlns:xlink="http://www.w3.org/1999/xlink">
    <!-- Generator: Sketch 54.1 (76490) - https://sketchapp.com -->
    <title>Group 13</title>
    <desc>Created with Sketch.</desc>
    <g id="Page-1" stroke="none" stroke-width="1" fill="none" fill-rule="evenodd">
        <g id="Group-13">
            <g id="Group-11" transform="translate(11.000000, 0.000000)">
                <g id="Group-10" fill="#FF8BB3" stroke="#FFB3CA">
                    <rect id="Rectangle" x="0.5" y="0.5" width="61" height="19.4285714" rx="2"></rect>
                </g>
                <path d="M16.378,5.80399999 L22.15,5.80399999 L22.15,7.53199999 L18.25,7.53199999 L18.25,9.11599999 L21.934,9.11599999 L21.934,10.844 L18.25,10.844 L18.25,12.572 L22.366,12.572 L22.366,14.3 L16.378,14.3 L16.378,5.80399999 Z M26.662,5.80399999 L28.21,5.80399999 L31.906,14.3 L29.794,14.3 L29.062,12.5 L25.762,12.5 L25.054,14.3 L22.99,14.3 L26.662,5.80399999 Z M27.382,8.27599999 L26.35,10.916 L28.426,10.916 L27.382,8.27599999 Z M36.958,7.87999999 C36.8059992,7.68799903 36.6000013,7.54600045 36.34,7.45399999 C36.0799987,7.36199953 35.8340012,7.31599999 35.602,7.31599999 C35.4659993,7.31599999 35.3260007,7.33199983 35.182,7.36399999 C35.0379993,7.39600015 34.9020006,7.44599965 34.774,7.51399999 C34.6459994,7.58200033 34.5420004,7.67199943 34.462,7.78399999 C34.3819996,7.89600055 34.342,8.03199919 34.342,8.19199999 C34.342,8.44800127 34.437999,8.64399931 34.63,8.77999999 C34.822001,8.91600067 35.0639985,9.03199951 35.356,9.12799999 C35.6480015,9.22400047 35.9619983,9.31999951 36.298,9.41599999 C36.6340017,9.51200047 36.9479985,9.64799911 37.24,9.82399999 C37.5320015,10.0000009 37.773999,10.2359985 37.966,10.532 C38.158001,10.8280015 38.254,11.2239975 38.254,11.72 C38.254,12.1920023 38.1660009,12.6039982 37.99,12.956 C37.8139991,13.3080017 37.5760015,13.5999988 37.276,13.832 C36.9759985,14.0640011 36.628002,14.2359994 36.232,14.348 C35.835998,14.4600005 35.4180022,14.516 34.978,14.516 C34.4259972,14.516 33.9140024,14.4320008 33.442,14.264 C32.9699976,14.0959991 32.530002,13.8240019 32.122,13.448 L33.454,11.984 C33.646001,12.2400013 33.8879985,12.4379993 34.18,12.578 C34.4720015,12.7180007 34.7739984,12.788 35.086,12.788 C35.2380008,12.788 35.3919992,12.7700002 35.548,12.734 C35.7040008,12.6979998 35.8439994,12.6440003 35.968,12.572 C36.0920006,12.4999996 36.1919996,12.4080005 36.268,12.296 C36.3440004,12.1839994 36.382,12.0520007 36.382,11.9 C36.382,11.6439987 36.284001,11.4420007 36.088,11.294 C35.891999,11.1459992 35.6460015,11.0200005 35.35,10.916 C35.0539985,10.8119995 34.7340017,10.7080005 34.39,10.604 C34.0459983,10.4999995 33.7260015,10.3600009 33.43,10.184 C33.1339985,10.0079991 32.888001,9.77600143 32.692,9.48799999 C32.495999,9.19999855 32.398,8.82000235 32.398,8.34799999 C32.398,7.89199771 32.4879991,7.49200171 32.668,7.14799999 C32.8480009,6.80399827 33.0879985,6.51600115 33.388,6.28399999 C33.6880015,6.05199883 34.033998,5.87800057 34.426,5.76199999 C34.818002,5.64599941 35.2219979,5.58799999 35.638,5.58799999 C36.1180024,5.58799999 36.5819978,5.65599931 37.03,5.79199999 C37.4780022,5.92800067 37.8819982,6.15599839 38.242,6.47599999 L36.958,7.87999999 Z M41.734,10.676 L38.542,5.80399999 L40.87,5.80399999 L42.67,8.98399999 L44.578,5.80399999 L46.798,5.80399999 L43.606,10.676 L43.606,14.3 L41.734,14.3 L41.734,10.676 Z" id="EASY" fill="#FFE3EB" fill-rule="nonzero"></path>
            </g>
            <polyline id="Path-40" fill="#FFB3CA" points="11 4 0 10 11 16"></polyline>
            <polyline id="Path-40" fill="#FFB3CA" transform="translate(78.500000, 10.000000) scale(-1, 1) translate(-78.500000, -10.000000) " points="84 4 73 10 84 16"></polyline>
        </g>
    </g>
</svg>