<?xml version="1.0" encoding="UTF-8"?>
<svg width="84px" height="21px" viewBox="0 0 84 21" version="1.1" xmlns="http://www.w3.org/2000/svg" xmlns:xlink="http://www.w3.org/1999/xlink">
    <!-- Generator: Sketch 54.1 (76490) - https://sketchapp.com -->
    <title>Group 13</title>
    <desc>Created with Sketch.</desc>
    <g id="Page-1" stroke="none" stroke-width="1" fill="none" fill-rule="evenodd">
        <g id="Group-13">
            <g id="Group-11" transform="translate(11.000000, 0.000000)">
                <g id="Group-10" fill="#FF8BB3" stroke="#FFB3CA">
                    <rect id="Rectangle" x="0.5" y="0.5" width="61" height="19.4285714" rx="2"></rect>
                </g>
                <path d="M14.422,5.80399999 L16.294,5.80399999 L16.294,8.97199999 L19.93,8.97199999 L19.93,5.80399999 L21.802,5.80399999 L21.802,14.3 L19.93,14.3 L19.93,10.628 L16.294,10.628 L16.294,14.3 L14.422,14.3 L14.422,5.80399999 Z M26.326,5.80399999 L27.874,5.80399999 L31.57,14.3 L29.458,14.3 L28.726,12.5 L25.426,12.5 L24.718,14.3 L22.654,14.3 L26.326,5.80399999 Z M27.046,8.27599999 L26.014,10.916 L28.09,10.916 L27.046,8.27599999 Z M32.422,5.80399999 L35.71,5.80399999 C36.1420022,5.80399999 36.5519981,5.84599957 36.94,5.92999999 C37.3280019,6.01400041 37.6679985,6.15399901 37.96,6.34999999 C38.2520015,6.54600097 38.4839991,6.80999833 38.656,7.14199999 C38.8280009,7.47400165 38.914,7.88799751 38.914,8.38399999 C38.914,8.98400299 38.7580016,9.49399789 38.446,9.91399999 C38.1339984,10.3340021 37.678003,10.5999994 37.078,10.712 L39.238,14.3 L36.994,14.3 L35.218,10.904 L34.294,10.904 L34.294,14.3 L32.422,14.3 L32.422,5.80399999 Z M34.294,9.31999999 L35.398,9.31999999 C35.5660008,9.31999999 35.7439991,9.31400005 35.932,9.30199999 C36.1200009,9.28999993 36.2899992,9.25400029 36.442,9.19399999 C36.5940008,9.13399969 36.7199995,9.04000063 36.82,8.91199999 C36.9200005,8.78399935 36.97,8.60400115 36.97,8.37199999 C36.97,8.15599891 36.9260004,7.98400063 36.838,7.85599999 C36.7499996,7.72799935 36.6380007,7.63000033 36.502,7.56199999 C36.3659993,7.49399965 36.2100009,7.44800011 36.034,7.42399999 C35.8579991,7.39999987 35.6860008,7.38799999 35.518,7.38799999 L34.294,7.38799999 L34.294,9.31999999 Z M40.198,5.80399999 L43.006,5.80399999 C43.6860034,5.80399999 44.3319969,5.87999923 44.944,6.03199999 C45.5560031,6.18400075 46.0899977,6.42999829 46.546,6.76999999 C47.0020023,7.11000169 47.3639987,7.55199727 47.632,8.09599999 C47.9000013,8.64000271 48.034,9.29999611 48.034,10.076 C48.034,10.7640034 47.9040013,11.3699974 47.644,11.894 C47.3839987,12.4180026 47.0340022,12.8579982 46.594,13.214 C46.1539978,13.5700018 45.6460029,13.8399991 45.07,14.024 C44.4939971,14.2080009 43.8900032,14.3 43.258,14.3 L40.198,14.3 L40.198,5.80399999 Z M42.07,12.572 L43.042,12.572 C43.4740022,12.572 43.8759981,12.5280004 44.248,12.44 C44.6200019,12.3519995 44.9419986,12.206001 45.214,12.002 C45.4860014,11.797999 45.6999992,11.5300016 45.856,11.198 C46.0120008,10.8659983 46.09,10.4600024 46.09,9.97999999 C46.09,9.56399791 46.0120008,9.20200153 45.856,8.89399999 C45.6999992,8.58599845 45.4900013,8.33200099 45.226,8.13199999 C44.9619987,7.93199899 44.6520018,7.78200049 44.296,7.68199999 C43.9399982,7.58199949 43.566002,7.53199999 43.174,7.53199999 L42.07,7.53199999 L42.07,12.572 Z" id="HARD" fill="#FFE3EB" fill-rule="nonzero"></path>
            </g>
            <polyline id="Path-40" fill="#FFB3CA" points="11 4 0 10 11 16"></polyline>
            <polyline id="Path-40" fill="#FFB3CA" transform="translate(78.500000, 10.000000) scale(-1, 1) translate(-78.500000, -10.000000) " points="84 4 73 10 84 16"></polyline>
        </g>
    </g>
</svg>