<?xml version="1.0" encoding="UTF-8"?>
<svg width="84px" height="21px" viewBox="0 0 84 21" version="1.1" xmlns="http://www.w3.org/2000/svg" xmlns:xlink="http://www.w3.org/1999/xlink">
    <!-- Generator: Sketch 54.1 (76490) - https://sketchapp.com -->
    <title>Group 13</title>
    <desc>Created with Sketch.</desc>
    <g id="Page-1" stroke="none" stroke-width="1" fill="none" fill-rule="evenodd">
        <g id="Group-13">
            <g id="Group-11" transform="translate(11.000000, 0.000000)">
                <g id="Group-10" fill="#FF8BB3" stroke="#FFB3CA">
                    <rect id="Rectangle" x="0.5" y="0.5" width="61" height="19.4285714" rx="2"></rect>
                </g>
                <path d="M5.98,5.80399999 L8.812,5.80399999 L10.768,11.348 L10.792,11.348 L12.76,5.80399999 L15.58,5.80399999 L15.58,14.3 L13.708,14.3 L13.708,7.78399999 L13.684,7.78399999 L11.452,14.3 L10.024,14.3 L7.876,7.78399999 L7.852,7.78399999 L7.852,14.3 L5.98,14.3 L5.98,5.80399999 Z M17.38,5.80399999 L23.152,5.80399999 L23.152,7.53199999 L19.252,7.53199999 L19.252,9.11599999 L22.936,9.11599999 L22.936,10.844 L19.252,10.844 L19.252,12.572 L23.368,12.572 L23.368,14.3 L17.38,14.3 L17.38,5.80399999 Z M24.868,5.80399999 L27.676,5.80399999 C28.3560034,5.80399999 29.0019969,5.87999923 29.614,6.03199999 C30.2260031,6.18400075 30.7599977,6.42999829 31.216,6.76999999 C31.6720023,7.11000169 32.0339987,7.55199727 32.302,8.09599999 C32.5700013,8.64000271 32.704,9.29999611 32.704,10.076 C32.704,10.7640034 32.5740013,11.3699974 32.314,11.894 C32.0539987,12.4180026 31.7040022,12.8579982 31.264,13.214 C30.8239978,13.5700018 30.3160029,13.8399991 29.74,14.024 C29.1639971,14.2080009 28.5600032,14.3 27.928,14.3 L24.868,14.3 L24.868,5.80399999 Z M26.74,12.572 L27.712,12.572 C28.1440022,12.572 28.5459981,12.5280004 28.918,12.44 C29.2900019,12.3519995 29.6119986,12.206001 29.884,12.002 C30.1560014,11.797999 30.3699992,11.5300016 30.526,11.198 C30.6820008,10.8659983 30.76,10.4600024 30.76,9.97999999 C30.76,9.56399791 30.6820008,9.20200153 30.526,8.89399999 C30.3699992,8.58599845 30.1600013,8.33200099 29.896,8.13199999 C29.6319987,7.93199899 29.3220018,7.78200049 28.966,7.68199999 C28.6099982,7.58199949 28.236002,7.53199999 27.844,7.53199999 L26.74,7.53199999 L26.74,12.572 Z M33.952,5.80399999 L35.824,5.80399999 L35.824,14.3 L33.952,14.3 L33.952,5.80399999 Z M44.692,11.024 C44.692,11.5280025 44.6160008,11.9919979 44.464,12.416 C44.3119992,12.8400021 44.0860015,13.2079984 43.786,13.52 C43.4859985,13.8320015 43.1120022,14.0759991 42.664,14.252 C42.2159978,14.4280009 41.7000029,14.516 41.116,14.516 C40.523997,14.516 40.0040022,14.4280009 39.556,14.252 C39.1079978,14.0759991 38.7340015,13.8320015 38.434,13.52 C38.1339985,13.2079984 37.9080008,12.8400021 37.756,12.416 C37.6039992,11.9919979 37.528,11.5280025 37.528,11.024 L37.528,5.80399999 L39.4,5.80399999 L39.4,10.952 C39.4,11.2160013 39.4419996,11.4599989 39.526,11.684 C39.6100004,11.9080011 39.7279992,12.1019992 39.88,12.266 C40.0320008,12.4300008 40.2139989,12.5579995 40.426,12.65 C40.6380011,12.7420004 40.8679988,12.788 41.116,12.788 C41.3640012,12.788 41.591999,12.7420004 41.8,12.65 C42.008001,12.5579995 42.1879992,12.4300008 42.34,12.266 C42.4920008,12.1019992 42.6099996,11.9080011 42.694,11.684 C42.7780004,11.4599989 42.82,11.2160013 42.82,10.952 L42.82,5.80399999 L44.692,5.80399999 L44.692,11.024 Z M46.42,5.80399999 L49.252,5.80399999 L51.208,11.348 L51.232,11.348 L53.2,5.80399999 L56.02,5.80399999 L56.02,14.3 L54.148,14.3 L54.148,7.78399999 L54.124,7.78399999 L51.892,14.3 L50.464,14.3 L48.316,7.78399999 L48.292,7.78399999 L48.292,14.3 L46.42,14.3 L46.42,5.80399999 Z" id="MEDIUM" fill="#FFE3EB" fill-rule="nonzero"></path>
            </g>
            <polyline id="Path-40" fill="#FFB3CA" points="11 4 0 10 11 16"></polyline>
            <polyline id="Path-40" fill="#FFB3CA" transform="translate(78.500000, 10.000000) scale(-1, 1) translate(-78.500000, -10.000000) " points="84 4 73 10 84 16"></polyline>
        </g>
    </g>
</svg>