<?xml version="1.0" encoding="UTF-8"?>
<svg width="84px" height="21px" viewBox="0 0 84 21" version="1.1" xmlns="http://www.w3.org/2000/svg" xmlns:xlink="http://www.w3.org/1999/xlink">
    <!-- Generator: Sketch 54.1 (76490) - https://sketchapp.com -->
    <title>Group 13</title>
    <desc>Created with Sketch.</desc>
    <g id="Page-1" stroke="none" stroke-width="1" fill="none" fill-rule="evenodd">
        <g id="Group-13">
            <g id="Group-11" transform="translate(11.000000, 0.000000)">
                <g id="Group-10" fill="#FF8BB3" stroke="#FFB3CA">
                    <rect id="Rectangle" x="0.5" y="0.5" width="61" height="19.4285714" rx="2"></rect>
                </g>
                <path d="M19.582,11.024 C19.582,11.5280025 19.5060008,11.9919979 19.354,12.416 C19.2019992,12.8400021 18.9760015,13.2079984 18.676,13.52 C18.3759985,13.8320015 18.0020022,14.0759991 17.554,14.252 C17.1059978,14.4280009 16.5900029,14.516 16.006,14.516 C15.413997,14.516 14.8940022,14.4280009 14.446,14.252 C13.9979978,14.0759991 13.6240015,13.8320015 13.324,13.52 C13.0239985,13.2079984 12.7980008,12.8400021 12.646,12.416 C12.4939992,11.9919979 12.418,11.5280025 12.418,11.024 L12.418,5.80399999 L14.29,5.80399999 L14.29,10.952 C14.29,11.2160013 14.3319996,11.4599989 14.416,11.684 C14.5000004,11.9080011 14.6179992,12.1019992 14.77,12.266 C14.9220008,12.4300008 15.1039989,12.5579995 15.316,12.65 C15.5280011,12.7420004 15.7579988,12.788 16.006,12.788 C16.2540012,12.788 16.481999,12.7420004 16.69,12.65 C16.898001,12.5579995 17.0779992,12.4300008 17.23,12.266 C17.3820008,12.1019992 17.4999996,11.9080011 17.584,11.684 C17.6680004,11.4599989 17.71,11.2160013 17.71,10.952 L17.71,5.80399999 L19.582,5.80399999 L19.582,11.024 Z M21.382,5.80399999 L23.254,5.80399999 L23.254,12.572 L26.722,12.572 L26.722,14.3 L21.382,14.3 L21.382,5.80399999 Z M29.398,7.45999999 L26.974,7.45999999 L26.974,5.80399999 L33.694,5.80399999 L33.694,7.45999999 L31.27,7.45999999 L31.27,14.3 L29.398,14.3 L29.398,7.45999999 Z M34.642,5.80399999 L37.93,5.80399999 C38.3620022,5.80399999 38.7719981,5.84599957 39.16,5.92999999 C39.5480019,6.01400041 39.8879985,6.15399901 40.18,6.34999999 C40.4720015,6.54600097 40.7039991,6.80999833 40.876,7.14199999 C41.0480009,7.47400165 41.134,7.88799751 41.134,8.38399999 C41.134,8.98400299 40.9780016,9.49399789 40.666,9.91399999 C40.3539984,10.3340021 39.898003,10.5999994 39.298,10.712 L41.458,14.3 L39.214,14.3 L37.438,10.904 L36.514,10.904 L36.514,14.3 L34.642,14.3 L34.642,5.80399999 Z M36.514,9.31999999 L37.618,9.31999999 C37.7860008,9.31999999 37.9639991,9.31400005 38.152,9.30199999 C38.3400009,9.28999993 38.5099992,9.25400029 38.662,9.19399999 C38.8140008,9.13399969 38.9399995,9.04000063 39.04,8.91199999 C39.1400005,8.78399935 39.19,8.60400115 39.19,8.37199999 C39.19,8.15599891 39.1460004,7.98400063 39.058,7.85599999 C38.9699996,7.72799935 38.8580007,7.63000033 38.722,7.56199999 C38.5859993,7.49399965 38.4300009,7.44800011 38.254,7.42399999 C38.0779991,7.39999987 37.9060008,7.38799999 37.738,7.38799999 L36.514,7.38799999 L36.514,9.31999999 Z M45.214,5.80399999 L46.762,5.80399999 L50.458,14.3 L48.346,14.3 L47.614,12.5 L44.314,12.5 L43.606,14.3 L41.542,14.3 L45.214,5.80399999 Z M45.934,8.27599999 L44.902,10.916 L46.978,10.916 L45.934,8.27599999 Z" id="ULTRA" fill="#FFE3EB" fill-rule="nonzero"></path>
            </g>
            <polyline id="Path-40" fill="#FFB3CA" points="11 4 0 10 11 16"></polyline>
            <polyline id="Path-40" fill="#FFB3CA" transform="translate(78.500000, 10.000000) scale(-1, 1) translate(-78.500000, -10.000000) " points="84 4 73 10 84 16"></polyline>
        </g>
    </g>
</svg>