<?xml version="1.0" encoding="UTF-8"?>
<svg width="243px" height="39px" viewBox="0 0 243 39" version="1.1" xmlns="http://www.w3.org/2000/svg" xmlns:xlink="http://www.w3.org/1999/xlink">
    <!-- Generator: Sketch 54.1 (76490) - https://sketchapp.com -->
    <title>Group 6</title>
    <desc>Created with Sketch.</desc>
    <g id="Page-1" stroke="none" stroke-width="1" fill="none" fill-rule="evenodd">
        <g id="Artboard-Copy-7" transform="translate(-306.000000, -233.000000)" fill="#FFE3C1">
            <g id="Group-6" transform="translate(306.000000, 233.000000)">
                <g id="Group-4">
                    <path d="M18.7995608,0.614664 C19.1859171,-0.204888 19.8161216,-0.204888 20.2008889,0.614664 L25.0619611,10.9563055 C25.4483174,11.7758575 26.4680724,12.5554915 27.3294616,12.685161 L38.2012058,14.3475008 C39.0625949,14.4788258 39.2589511,15.1088782 38.6350621,15.7472248 L30.7686539,23.7963507 C30.144765,24.4346973 29.755255,25.6947511 29.9025221,26.5957561 L31.7582988,37.9630083 C31.9055579,38.8640134 31.3941076,39.2529793 30.6245486,38.8274148 L20.9007828,33.4580679 C20.1296672,33.0325034 18.8676612,33.0325034 18.098086,33.4580679 L8.37432019,38.8240103 C7.60320464,39.2495748 7.09330281,38.860582 7.24056995,37.9596038 L9.09792759,26.5923516 C9.24518662,25.6913466 8.85566038,24.4312928 8.23179575,23.7929462 L0.365385937,15.7438203 C-0.258503007,15.1054737 -0.0637277242,14.4770852 0.799242306,14.3440963 L11.6709881,12.6817565 C12.5323772,12.5504316 13.5536807,11.7707933 13.9384886,10.952901 L18.7995608,0.614664 Z" id="Fill-1"></path>
                    <path d="M222.099561,0.614664 C222.485917,-0.204888 223.116122,-0.204888 223.500889,0.614664 L228.361961,10.9563055 C228.748317,11.7758575 229.768072,12.5554915 230.629462,12.685161 L241.501206,14.3475008 C242.362595,14.4788258 242.558951,15.1088782 241.935062,15.7472248 L234.068654,23.7963507 C233.444765,24.4346973 233.055255,25.6947511 233.202522,26.5957561 L235.058299,37.9630083 C235.205558,38.8640134 234.694108,39.2529793 233.924549,38.8274148 L224.200783,33.4580679 C223.429667,33.0325034 222.167661,33.0325034 221.398086,33.4580679 L211.67432,38.8240103 C210.903205,39.2495748 210.393303,38.860582 210.54057,37.9596038 L212.397928,26.5923516 C212.545187,25.6913466 212.15566,24.4312928 211.531796,23.7929462 L203.665386,15.7438203 C203.041497,15.1054737 203.236272,14.4770852 204.099242,14.3440963 L214.970988,12.6817565 C215.832377,12.5504316 216.853681,11.7707933 217.238489,10.952901 L222.099561,0.614664 Z" id="Fill-1"></path>
                </g>
                <path d="M90.16,32.24 C88.3199908,33.2000048 86.40001,33.8933312 84.4,34.32 C82.39999,34.7466688 80.3600104,34.96 78.28,34.96 C76.0666556,34.96 74.026676,34.6133368 72.16,33.92 C70.293324,33.2266632 68.6800068,32.2333398 67.32,30.94 C65.9599932,29.6466602 64.9000038,28.0800092 64.14,26.24 C63.3799962,24.3999908 63,22.346678 63,20.08 C63,17.813322 63.3799962,15.7600092 64.14,13.92 C64.9000038,12.0799908 65.9599932,10.5133398 67.32,9.22 C68.6800068,7.9266602 70.293324,6.9333368 72.16,6.24 C74.026676,5.5466632 76.0666556,5.2 78.28,5.2 C80.546678,5.2 82.6333238,5.4733306 84.54,6.02 C86.4466762,6.5666694 88.1199928,7.50666 89.56,8.84 L85.16,13.64 C84.3066624,12.7599956 83.346672,12.0933356 82.28,11.64 C81.213328,11.1866644 79.880008,10.96 78.28,10.96 C76.94666,10.96 75.7400054,11.1866644 74.66,11.64 C73.5799946,12.0933356 72.6533372,12.7266626 71.88,13.54 C71.1066628,14.3533374 70.5133354,15.3199944 70.1,16.44 C69.6866646,17.5600056 69.48,18.7733268 69.48,20.08 C69.48,21.41334 69.6866646,22.6333278 70.1,23.74 C70.5133354,24.8466722 71.1066628,25.8066626 71.88,26.62 C72.6533372,27.4333374 73.5799946,28.0666644 74.66,28.52 C75.7400054,28.9733356 76.94666,29.2 78.28,29.2 C79.6400068,29.2 80.8133284,29.0466682 81.8,28.74 C82.7866716,28.4333318 83.5733304,28.1200016 84.16,27.8 L84.16,23.2 L79.08,23.2 L79.08,17.44 L90.16,17.44 L90.16,32.24 Z M94.16,24.52 C94.16,22.9733256 94.4399972,21.5733396 95,20.32 C95.5600028,19.0666604 96.3266618,17.9933378 97.3,17.1 C98.2733382,16.2066622 99.4199934,15.5200024 100.74,15.04 C102.060007,14.5599976 103.466659,14.32 104.96,14.32 C106.453341,14.32 107.859993,14.5599976 109.18,15.04 C110.500007,15.5200024 111.646662,16.2066622 112.62,17.1 C113.593338,17.9933378 114.359997,19.0666604 114.92,20.32 C115.480003,21.5733396 115.76,22.9733256 115.76,24.52 C115.76,26.0666744 115.480003,27.4666604 114.92,28.72 C114.359997,29.9733396 113.593338,31.0466622 112.62,31.94 C111.646662,32.8333378 110.500007,33.5199976 109.18,34 C107.859993,34.4800024 106.453341,34.72 104.96,34.72 C103.466659,34.72 102.060007,34.4800024 100.74,34 C99.4199934,33.5199976 98.2733382,32.8333378 97.3,31.94 C96.3266618,31.0466622 95.5600028,29.9733396 95,28.72 C94.4399972,27.4666604 94.16,26.0666744 94.16,24.52 Z M100.16,24.52 C100.16,25.986674 100.579996,27.1733288 101.42,28.08 C102.260004,28.9866712 103.439992,29.44 104.96,29.44 C106.480008,29.44 107.659996,28.9866712 108.5,28.08 C109.340004,27.1733288 109.76,25.986674 109.76,24.52 C109.76,23.053326 109.340004,21.8666712 108.5,20.96 C107.659996,20.0533288 106.480008,19.6 104.96,19.6 C103.439992,19.6 102.260004,20.0533288 101.42,20.96 C100.579996,21.8666712 100.16,23.053326 100.16,24.52 Z M118.56,24.52 C118.56,22.9733256 118.839997,21.5733396 119.4,20.32 C119.960003,19.0666604 120.726662,17.9933378 121.7,17.1 C122.673338,16.2066622 123.819993,15.5200024 125.14,15.04 C126.460007,14.5599976 127.866659,14.32 129.36,14.32 C130.853341,14.32 132.259993,14.5599976 133.58,15.04 C134.900007,15.5200024 136.046662,16.2066622 137.02,17.1 C137.993338,17.9933378 138.759997,19.0666604 139.32,20.32 C139.880003,21.5733396 140.16,22.9733256 140.16,24.52 C140.16,26.0666744 139.880003,27.4666604 139.32,28.72 C138.759997,29.9733396 137.993338,31.0466622 137.02,31.94 C136.046662,32.8333378 134.900007,33.5199976 133.58,34 C132.259993,34.4800024 130.853341,34.72 129.36,34.72 C127.866659,34.72 126.460007,34.4800024 125.14,34 C123.819993,33.5199976 122.673338,32.8333378 121.7,31.94 C120.726662,31.0466622 119.960003,29.9733396 119.4,28.72 C118.839997,27.4666604 118.56,26.0666744 118.56,24.52 Z M124.56,24.52 C124.56,25.986674 124.979996,27.1733288 125.82,28.08 C126.660004,28.9866712 127.839992,29.44 129.36,29.44 C130.880008,29.44 132.059996,28.9866712 132.9,28.08 C133.740004,27.1733288 134.16,25.986674 134.16,24.52 C134.16,23.053326 133.740004,21.8666712 132.9,20.96 C132.059996,20.0533288 130.880008,19.6 129.36,19.6 C127.839992,19.6 126.660004,20.0533288 125.82,20.96 C124.979996,21.8666712 124.56,23.053326 124.56,24.52 Z M164.08,34.24 L158.56,34.24 L158.56,31.68 L158.48,31.68 C158.239999,32.0266684 157.926669,32.3799982 157.54,32.74 C157.153331,33.1000018 156.700003,33.4266652 156.18,33.72 C155.659997,34.0133348 155.08667,34.2533324 154.46,34.44 C153.83333,34.6266676 153.18667,34.72 152.52,34.72 C151.079993,34.72 149.773339,34.4733358 148.6,33.98 C147.426661,33.4866642 146.420004,32.7933378 145.58,31.9 C144.739996,31.0066622 144.093336,29.9466728 143.64,28.72 C143.186664,27.4933272 142.96,26.146674 142.96,24.68 C142.96,23.3199932 143.166665,22.0200062 143.58,20.78 C143.993335,19.5399938 144.579996,18.4400048 145.34,17.48 C146.100004,16.5199952 147.026661,15.7533362 148.12,15.18 C149.213339,14.6066638 150.453326,14.32 151.84,14.32 C153.09334,14.32 154.259995,14.5133314 155.34,14.9 C156.420005,15.2866686 157.306663,15.946662 158,16.88 L158.08,16.88 L158.08,4 L164.08,4 L164.08,34.24 Z M158.56,24.52 C158.56,23.053326 158.140004,21.8666712 157.3,20.96 C156.459996,20.0533288 155.280008,19.6 153.76,19.6 C152.239992,19.6 151.060004,20.0533288 150.22,20.96 C149.379996,21.8666712 148.96,23.053326 148.96,24.52 C148.96,25.986674 149.379996,27.1733288 150.22,28.08 C151.060004,28.9866712 152.239992,29.44 153.76,29.44 C155.280008,29.44 156.459996,28.9866712 157.3,28.08 C158.140004,27.1733288 158.56,25.986674 158.56,24.52 Z M178.64,24.88 L172.64,24.88 L172.64,5.92 L178.64,5.92 L178.64,24.88 Z M171.96,30.8 C171.96,30.2933308 172.053332,29.8133356 172.24,29.36 C172.426668,28.9066644 172.686665,28.513335 173.02,28.18 C173.353335,27.846665 173.746664,27.5866676 174.2,27.4 C174.653336,27.2133324 175.133331,27.12 175.64,27.12 C176.146669,27.12 176.626664,27.2133324 177.08,27.4 C177.533336,27.5866676 177.926665,27.846665 178.26,28.18 C178.593335,28.513335 178.853332,28.9066644 179.04,29.36 C179.226668,29.8133356 179.32,30.2933308 179.32,30.8 C179.32,31.3066692 179.226668,31.7866644 179.04,32.24 C178.853332,32.6933356 178.593335,33.086665 178.26,33.42 C177.926665,33.753335 177.533336,34.0133324 177.08,34.2 C176.626664,34.3866676 176.146669,34.48 175.64,34.48 C175.133331,34.48 174.653336,34.3866676 174.2,34.2 C173.746664,34.0133324 173.353335,33.753335 173.02,33.42 C172.686665,33.086665 172.426668,32.6933356 172.24,32.24 C172.053332,31.7866644 171.96,31.3066692 171.96,30.8 Z" id="Good!" fill-rule="nonzero"></path>
            </g>
        </g>
    </g>
</svg>