<?xml version="1.0" encoding="UTF-8"?>
<svg width="255px" height="39px" viewBox="0 0 255 39" version="1.1" xmlns="http://www.w3.org/2000/svg" xmlns:xlink="http://www.w3.org/1999/xlink">
    <!-- Generator: Sketch 54.1 (76490) - https://sketchapp.com -->
    <title>Group 4</title>
    <desc>Created with Sketch.</desc>
    <g id="Page-1" stroke="none" stroke-width="1" fill="none" fill-rule="evenodd">
        <g id="Artboard-Copy-7" transform="translate(-300.000000, -171.000000)" fill="#FFE3C1">
            <g id="Group-4" transform="translate(300.000000, 171.000000)">
                <path d="M18.7995608,0.614664 C19.1859171,-0.204888 19.8161216,-0.204888 20.2008889,0.614664 L25.0619611,10.9563055 C25.4483174,11.7758575 26.4680724,12.5554915 27.3294616,12.685161 L38.2012058,14.3475008 C39.0625949,14.4788258 39.2589511,15.1088782 38.6350621,15.7472248 L30.7686539,23.7963507 C30.144765,24.4346973 29.755255,25.6947511 29.9025221,26.5957561 L31.7582988,37.9630083 C31.9055579,38.8640134 31.3941076,39.2529793 30.6245486,38.8274148 L20.9007828,33.4580679 C20.1296672,33.0325034 18.8676612,33.0325034 18.098086,33.4580679 L8.37432019,38.8240103 C7.60320464,39.2495748 7.09330281,38.860582 7.24056995,37.9596038 L9.09792759,26.5923516 C9.24518662,25.6913466 8.85566038,24.4312928 8.23179575,23.7929462 L0.365385937,15.7438203 C-0.258503007,15.1054737 -0.0637277242,14.4770852 0.799242306,14.3440963 L11.6709881,12.6817565 C12.5323772,12.5504316 13.5536807,11.7707933 13.9384886,10.952901 L18.7995608,0.614664 Z" id="Fill-1"></path>
                <path d="M234.799561,0.614664 C235.185917,-0.204888 235.816122,-0.204888 236.200889,0.614664 L241.061961,10.9563055 C241.448317,11.7758575 242.468072,12.5554915 243.329462,12.685161 L254.201206,14.3475008 C255.062595,14.4788258 255.258951,15.1088782 254.635062,15.7472248 L246.768654,23.7963507 C246.144765,24.4346973 245.755255,25.6947511 245.902522,26.5957561 L247.758299,37.9630083 C247.905558,38.8640134 247.394108,39.2529793 246.624549,38.8274148 L236.900783,33.4580679 C236.129667,33.0325034 234.867661,33.0325034 234.098086,33.4580679 L224.37432,38.8240103 C223.603205,39.2495748 223.093303,38.860582 223.24057,37.9596038 L225.097928,26.5923516 C225.245187,25.6913466 224.85566,24.4312928 224.231796,23.7929462 L216.365386,15.7438203 C215.741497,15.1054737 215.936272,14.4770852 216.799242,14.3440963 L227.670988,12.6817565 C228.532377,12.5504316 229.553681,11.7707933 229.938489,10.952901 L234.799561,0.614664 Z" id="Fill-1"></path>
                <path d="M78.12,12.64 C77.6133308,11.9999968 76.926671,11.5266682 76.06,11.22 C75.193329,10.9133318 74.3733372,10.76 73.6,10.76 C73.1466644,10.76 72.6800024,10.8133328 72.2,10.92 C71.7199976,11.0266672 71.2666688,11.1933322 70.84,11.42 C70.4133312,11.6466678 70.066668,11.9466648 69.8,12.32 C69.533332,12.6933352 69.4,13.146664 69.4,13.68 C69.4,14.5333376 69.7199968,15.1866644 70.36,15.64 C71.0000032,16.0933356 71.8066618,16.4799984 72.78,16.8 C73.7533382,17.1200016 74.7999944,17.4399984 75.92,17.76 C77.0400056,18.0800016 78.0866618,18.5333304 79.06,19.12 C80.0333382,19.7066696 80.8399968,20.4933284 81.48,21.48 C82.1200032,22.4666716 82.44,23.7866584 82.44,25.44 C82.44,27.0133412 82.1466696,28.3866608 81.56,29.56 C80.9733304,30.7333392 80.180005,31.7066628 79.18,32.48 C78.179995,33.2533372 77.0200066,33.8266648 75.7,34.2 C74.3799934,34.5733352 72.986674,34.76 71.52,34.76 C69.6799908,34.76 67.9733412,34.4800028 66.4,33.92 C64.8266588,33.3599972 63.3600068,32.4533396 62,31.2 L66.44,26.32 C67.0800032,27.1733376 67.8866618,27.833331 68.86,28.3 C69.8333382,28.766669 70.8399948,29 71.88,29 C72.3866692,29 72.8999974,28.9400006 73.42,28.82 C73.9400026,28.6999994 74.4066646,28.5200012 74.82,28.28 C75.2333354,28.0399988 75.5666654,27.7333352 75.82,27.36 C76.0733346,26.9866648 76.2,26.5466692 76.2,26.04 C76.2,25.1866624 75.8733366,24.5133358 75.22,24.02 C74.5666634,23.5266642 73.7466716,23.1066684 72.76,22.76 C71.7733284,22.4133316 70.7066724,22.0666684 69.56,21.72 C68.4133276,21.3733316 67.3466716,20.9066696 66.36,20.32 C65.3733284,19.7333304 64.5533366,18.9600048 63.9,18 C63.2466634,17.0399952 62.92,15.7733412 62.92,14.2 C62.92,12.6799924 63.219997,11.3466724 63.82,10.2 C64.420003,9.0533276 65.219995,8.0933372 66.22,7.32 C67.220005,6.5466628 68.3733268,5.9666686 69.68,5.58 C70.9866732,5.1933314 72.3333264,5 73.72,5 C75.320008,5 76.8666592,5.2266644 78.36,5.68 C79.8533408,6.1333356 81.199994,6.893328 82.4,7.96 L78.12,12.64 Z M84,14.6 L90.4,14.6 L94.36,26.8 L94.44,26.8 L97.76,14.6 L104.32,14.6 L107.92,26.8 L108,26.8 L111.64,14.6 L117.72,14.6 L110.8,34.04 L104.88,34.04 L100.84,21.12 L100.76,21.12 L97.16,34.04 L91.12,34.04 L84,14.6 Z M138.04,30.68 C137.079995,31.9066728 135.866674,32.85333 134.4,33.52 C132.933326,34.18667 131.413341,34.52 129.84,34.52 C128.346659,34.52 126.940007,34.2800024 125.62,33.8 C124.299993,33.3199976 123.153338,32.6333378 122.18,31.74 C121.206662,30.8466622 120.440003,29.7733396 119.88,28.52 C119.319997,27.2666604 119.04,25.8666744 119.04,24.32 C119.04,22.7733256 119.319997,21.3733396 119.88,20.12 C120.440003,18.8666604 121.206662,17.7933378 122.18,16.9 C123.153338,16.0066622 124.299993,15.3200024 125.62,14.84 C126.940007,14.3599976 128.346659,14.12 129.84,14.12 C131.226674,14.12 132.486661,14.3599976 133.62,14.84 C134.753339,15.3200024 135.713329,16.0066622 136.5,16.9 C137.286671,17.7933378 137.893331,18.8666604 138.32,20.12 C138.746669,21.3733396 138.96,22.7733256 138.96,24.32 L138.96,26.2 L125.04,26.2 C125.280001,27.3466724 125.799996,28.2599966 126.6,28.94 C127.400004,29.6200034 128.386661,29.96 129.56,29.96 C130.546672,29.96 131.379997,29.7400022 132.06,29.3 C132.740003,28.8599978 133.333331,28.2933368 133.84,27.6 L138.04,30.68 Z M132.96,22.12 C132.986667,21.1066616 132.653337,20.2400036 131.96,19.52 C131.266663,18.7999964 130.373339,18.44 129.28,18.44 C128.61333,18.44 128.026669,18.5466656 127.52,18.76 C127.013331,18.9733344 126.580002,19.246665 126.22,19.58 C125.859998,19.913335 125.580001,20.2999978 125.38,20.74 C125.179999,21.1800022 125.066667,21.6399976 125.04,22.12 L132.96,22.12 Z M161,30.68 C160.039995,31.9066728 158.826674,32.85333 157.36,33.52 C155.893326,34.18667 154.373341,34.52 152.8,34.52 C151.306659,34.52 149.900007,34.2800024 148.58,33.8 C147.259993,33.3199976 146.113338,32.6333378 145.14,31.74 C144.166662,30.8466622 143.400003,29.7733396 142.84,28.52 C142.279997,27.2666604 142,25.8666744 142,24.32 C142,22.7733256 142.279997,21.3733396 142.84,20.12 C143.400003,18.8666604 144.166662,17.7933378 145.14,16.9 C146.113338,16.0066622 147.259993,15.3200024 148.58,14.84 C149.900007,14.3599976 151.306659,14.12 152.8,14.12 C154.186674,14.12 155.446661,14.3599976 156.58,14.84 C157.713339,15.3200024 158.673329,16.0066622 159.46,16.9 C160.246671,17.7933378 160.853331,18.8666604 161.28,20.12 C161.706669,21.3733396 161.92,22.7733256 161.92,24.32 L161.92,26.2 L148,26.2 C148.240001,27.3466724 148.759996,28.2599966 149.56,28.94 C150.360004,29.6200034 151.346661,29.96 152.52,29.96 C153.506672,29.96 154.339997,29.7400022 155.02,29.3 C155.700003,28.8599978 156.293331,28.2933368 156.8,27.6 L161,30.68 Z M155.92,22.12 C155.946667,21.1066616 155.613337,20.2400036 154.92,19.52 C154.226663,18.7999964 153.333339,18.44 152.24,18.44 C151.57333,18.44 150.986669,18.5466656 150.48,18.76 C149.973331,18.9733344 149.540002,19.246665 149.18,19.58 C148.819998,19.913335 148.540001,20.2999978 148.34,20.74 C148.139999,21.1800022 148.026667,21.6399976 148,22.12 L155.92,22.12 Z M178.8,19.4 L173.52,19.4 L173.52,25.88 C173.52,26.413336 173.546666,26.8999978 173.6,27.34 C173.653334,27.7800022 173.773332,28.1599984 173.96,28.48 C174.146668,28.8000016 174.433331,29.0466658 174.82,29.22 C175.206669,29.3933342 175.719997,29.48 176.36,29.48 C176.680002,29.48 177.099997,29.446667 177.62,29.38 C178.140003,29.313333 178.533332,29.1600012 178.8,28.92 L178.8,33.92 C178.13333,34.1600012 177.440004,34.3199996 176.72,34.4 C175.999996,34.4800004 175.293337,34.52 174.6,34.52 C173.586662,34.52 172.653338,34.4133344 171.8,34.2 C170.946662,33.9866656 170.200003,33.646669 169.56,33.18 C168.919997,32.713331 168.420002,32.1066704 168.06,31.36 C167.699998,30.6133296 167.52,29.706672 167.52,28.64 L167.52,19.4 L163.68,19.4 L163.68,14.6 L167.52,14.6 L167.52,8.84 L173.52,8.84 L173.52,14.6 L178.8,14.6 L178.8,19.4 Z M191.6,24.68 L185.6,24.68 L185.6,5.72 L191.6,5.72 L191.6,24.68 Z M184.92,30.6 C184.92,30.0933308 185.013332,29.6133356 185.2,29.16 C185.386668,28.7066644 185.646665,28.313335 185.98,27.98 C186.313335,27.646665 186.706664,27.3866676 187.16,27.2 C187.613336,27.0133324 188.093331,26.92 188.6,26.92 C189.106669,26.92 189.586664,27.0133324 190.04,27.2 C190.493336,27.3866676 190.886665,27.646665 191.22,27.98 C191.553335,28.313335 191.813332,28.7066644 192,29.16 C192.186668,29.6133356 192.28,30.0933308 192.28,30.6 C192.28,31.1066692 192.186668,31.5866644 192,32.04 C191.813332,32.4933356 191.553335,32.886665 191.22,33.22 C190.886665,33.553335 190.493336,33.8133324 190.04,34 C189.586664,34.1866676 189.106669,34.28 188.6,34.28 C188.093331,34.28 187.613336,34.1866676 187.16,34 C186.706664,33.8133324 186.313335,33.553335 185.98,33.22 C185.646665,32.886665 185.386668,32.4933356 185.2,32.04 C185.013332,31.5866644 184.92,31.1066692 184.92,30.6 Z" id="Sweet!" fill-rule="nonzero"></path>
            </g>
        </g>
    </g>
</svg>