<?xml version="1.0" encoding="UTF-8"?>
<svg width="219px" height="39px" viewBox="0 0 219 39" version="1.1" xmlns="http://www.w3.org/2000/svg" xmlns:xlink="http://www.w3.org/1999/xlink">
    <!-- Generator: Sketch 54.1 (76490) - https://sketchapp.com -->
    <title>Group 5</title>
    <desc>Created with Sketch.</desc>
    <g id="Page-1" stroke="none" stroke-width="1" fill="none" fill-rule="evenodd">
        <g id="Artboard-Copy-7" transform="translate(-317.000000, -100.000000)" fill="#FFE3C1">
            <g id="Group-4" transform="translate(317.000000, 100.000000)">
                <g id="Group-5">
                    <path d="M18.7995608,0.614664 C19.1859171,-0.204888 19.8161216,-0.204888 20.2008889,0.614664 L25.0619611,10.9563055 C25.4483174,11.7758575 26.4680724,12.5554915 27.3294616,12.685161 L38.2012058,14.3475008 C39.0625949,14.4788258 39.2589511,15.1088782 38.6350621,15.7472248 L30.7686539,23.7963507 C30.144765,24.4346973 29.755255,25.6947511 29.9025221,26.5957561 L31.7582988,37.9630083 C31.9055579,38.8640134 31.3941076,39.2529793 30.6245486,38.8274148 L20.9007828,33.4580679 C20.1296672,33.0325034 18.8676612,33.0325034 18.098086,33.4580679 L8.37432019,38.8240103 C7.60320464,39.2495748 7.09330281,38.860582 7.24056995,37.9596038 L9.09792759,26.5923516 C9.24518662,25.6913466 8.85566038,24.4312928 8.23179575,23.7929462 L0.365385937,15.7438203 C-0.258503007,15.1054737 -0.0637277242,14.4770852 0.799242306,14.3440963 L11.6709881,12.6817565 C12.5323772,12.5504316 13.5536807,11.7707933 13.9384886,10.952901 L18.7995608,0.614664 Z" id="Fill-1"></path>
                    <path d="M198.299561,0.614664 C198.685917,-0.204888 199.316122,-0.204888 199.700889,0.614664 L204.561961,10.9563055 C204.948317,11.7758575 205.968072,12.5554915 206.829462,12.685161 L217.701206,14.3475008 C218.562595,14.4788258 218.758951,15.1088782 218.135062,15.7472248 L210.268654,23.7963507 C209.644765,24.4346973 209.255255,25.6947511 209.402522,26.5957561 L211.258299,37.9630083 C211.405558,38.8640134 210.894108,39.2529793 210.124549,38.8274148 L200.400783,33.4580679 C199.629667,33.0325034 198.367661,33.0325034 197.598086,33.4580679 L187.87432,38.8240103 C187.103205,39.2495748 186.593303,38.860582 186.74057,37.9596038 L188.597928,26.5923516 C188.745187,25.6913466 188.35566,24.4312928 187.731796,23.7929462 L179.865386,15.7438203 C179.241497,15.1054737 179.436272,14.4770852 180.299242,14.3440963 L191.170988,12.6817565 C192.032377,12.5504316 193.053681,11.7707933 193.438489,10.952901 L198.299561,0.614664 Z" id="Fill-1"></path>
                    <path d="M63,5.72 L71.48,5.72 L83.52,25.4 L83.6,25.4 L83.6,5.72 L89.84,5.72 L89.84,34.04 L81.68,34.04 L69.32,13.88 L69.24,13.88 L69.24,34.04 L63,34.04 L63,5.72 Z M94.92,14.6 L100.92,14.6 L100.92,34.04 L94.92,34.04 L94.92,14.6 Z M94.44,8.48 C94.44,7.5199952 94.7799966,6.7000034 95.46,6.02 C96.1400034,5.3399966 96.9599952,5 97.92,5 C98.8800048,5 99.6999966,5.3399966 100.38,6.02 C101.060003,6.7000034 101.4,7.5199952 101.4,8.48 C101.4,9.4400048 101.060003,10.2599966 100.38,10.94 C99.6999966,11.6200034 98.8800048,11.96 97.92,11.96 C96.9599952,11.96 96.1400034,11.6200034 95.46,10.94 C94.7799966,10.2599966 94.44,9.4400048 94.44,8.48 Z M118.4,20.88 C118.106665,20.4533312 117.693336,20.1000014 117.16,19.82 C116.626664,19.5399986 116.053336,19.4 115.44,19.4 C113.919992,19.4 112.740004,19.8533288 111.9,20.76 C111.059996,21.6666712 110.64,22.853326 110.64,24.32 C110.64,25.786674 111.059996,26.9733288 111.9,27.88 C112.740004,28.7866712 113.919992,29.24 115.44,29.24 C116.10667,29.24 116.679998,29.0933348 117.16,28.8 C117.640002,28.5066652 118.053332,28.160002 118.4,27.76 L122.36,31.92 C121.426662,32.8800048 120.326673,33.5533314 119.06,33.94 C117.793327,34.3266686 116.586672,34.52 115.44,34.52 C113.946659,34.52 112.540007,34.2800024 111.22,33.8 C109.899993,33.3199976 108.753338,32.6333378 107.78,31.74 C106.806662,30.8466622 106.040003,29.7733396 105.48,28.52 C104.919997,27.2666604 104.64,25.8666744 104.64,24.32 C104.64,22.7733256 104.919997,21.3733396 105.48,20.12 C106.040003,18.8666604 106.806662,17.7933378 107.78,16.9 C108.753338,16.0066622 109.899993,15.3200024 111.22,14.84 C112.540007,14.3599976 113.946659,14.12 115.44,14.12 C116.586672,14.12 117.793327,14.3133314 119.06,14.7 C120.326673,15.0866686 121.426662,15.7599952 122.36,16.72 L118.4,20.88 Z M142.92,30.68 C141.959995,31.9066728 140.746674,32.85333 139.28,33.52 C137.813326,34.18667 136.293341,34.52 134.72,34.52 C133.226659,34.52 131.820007,34.2800024 130.5,33.8 C129.179993,33.3199976 128.033338,32.6333378 127.06,31.74 C126.086662,30.8466622 125.320003,29.7733396 124.76,28.52 C124.199997,27.2666604 123.92,25.8666744 123.92,24.32 C123.92,22.7733256 124.199997,21.3733396 124.76,20.12 C125.320003,18.8666604 126.086662,17.7933378 127.06,16.9 C128.033338,16.0066622 129.179993,15.3200024 130.5,14.84 C131.820007,14.3599976 133.226659,14.12 134.72,14.12 C136.106674,14.12 137.366661,14.3599976 138.5,14.84 C139.633339,15.3200024 140.593329,16.0066622 141.38,16.9 C142.166671,17.7933378 142.773331,18.8666604 143.2,20.12 C143.626669,21.3733396 143.84,22.7733256 143.84,24.32 L143.84,26.2 L129.92,26.2 C130.160001,27.3466724 130.679996,28.2599966 131.48,28.94 C132.280004,29.6200034 133.266661,29.96 134.44,29.96 C135.426672,29.96 136.259997,29.7400022 136.94,29.3 C137.620003,28.8599978 138.213331,28.2933368 138.72,27.6 L142.92,30.68 Z M137.84,22.12 C137.866667,21.1066616 137.533337,20.2400036 136.84,19.52 C136.146663,18.7999964 135.253339,18.44 134.16,18.44 C133.49333,18.44 132.906669,18.5466656 132.4,18.76 C131.893331,18.9733344 131.460002,19.246665 131.1,19.58 C130.739998,19.913335 130.460001,20.2999978 130.26,20.74 C130.059999,21.1800022 129.946667,21.6399976 129.92,22.12 L137.84,22.12 Z M157.24,24.68 L151.24,24.68 L151.24,5.72 L157.24,5.72 L157.24,24.68 Z M150.56,30.6 C150.56,30.0933308 150.653332,29.6133356 150.84,29.16 C151.026668,28.7066644 151.286665,28.313335 151.62,27.98 C151.953335,27.646665 152.346664,27.3866676 152.8,27.2 C153.253336,27.0133324 153.733331,26.92 154.24,26.92 C154.746669,26.92 155.226664,27.0133324 155.68,27.2 C156.133336,27.3866676 156.526665,27.646665 156.86,27.98 C157.193335,28.313335 157.453332,28.7066644 157.64,29.16 C157.826668,29.6133356 157.92,30.0933308 157.92,30.6 C157.92,31.1066692 157.826668,31.5866644 157.64,32.04 C157.453332,32.4933356 157.193335,32.886665 156.86,33.22 C156.526665,33.553335 156.133336,33.8133324 155.68,34 C155.226664,34.1866676 154.746669,34.28 154.24,34.28 C153.733331,34.28 153.253336,34.1866676 152.8,34 C152.346664,33.8133324 151.953335,33.553335 151.62,33.22 C151.286665,32.886665 151.026668,32.4933356 150.84,32.04 C150.653332,31.5866644 150.56,31.1066692 150.56,30.6 Z" id="Nice!" fill-rule="nonzero"></path>
                </g>
            </g>
        </g>
    </g>
</svg>