<?xml version="1.0" encoding="UTF-8"?>
<svg width="169px" height="84px" viewBox="0 0 169 84" version="1.1" xmlns="http://www.w3.org/2000/svg" xmlns:xlink="http://www.w3.org/1999/xlink">
    <!-- Generator: Sketch 52.6 (67491) - http://www.bohemiancoding.com/sketch -->
    <title>Group 7</title>
    <desc>Created with Sketch.</desc>
    <g id="Page-1" stroke="none" stroke-width="1" fill="none" fill-rule="evenodd">
        <g id="Artboard-Copy" transform="translate(-556.000000, -307.000000)">
            <g id="Group-7" transform="translate(555.000000, 306.000000)">
                <path d="M26.0217391,84.1702128 C13.6304348,85.3900709 6.19565217,82.9503546 3.7173913,76.8510638 C1.23913043,70.751773 1.23913043,64.6524823 3.7173913,58.5531915 L14.8695652,32.9361702 L31.5978261,14.6382979 L57.6195652,4.9404255 L72.4891304,3.65957447 L81.7826087,1.82978723 C89.2173913,1.09787229 99.1304348,2.13475171 111.521739,4.9404255 C123.913043,7.74609928 110.282609,12.8085106 70.6304348,20.1276596 L44.6086957,51.2340426 L39.0326087,75.0212766 L29.7391304,82.3404255 L26.0217391,84.1702128 Z" id="Path-16" fill="#74CCA9" fill-rule="nonzero"></path>
                <path d="M3.90623478,76.8510638 C4.27652413,74.8353702 5.76493043,73.005583 6.69427826,71.1757957 C8.92322609,67.5162213 5.5761613,62.9417532 5.95369957,58.9176851 C6.32398891,52.8779234 11.340943,50.3191489 15.61743,47.0240681 C17.4761257,45.5588111 18.7757257,44.4652936 18.7757257,42.0851064 C18.7757257,40.0694128 18.7757257,38.2396255 18.9644948,36.2312511 C19.5235533,32.757583 21.9413817,31.8426894 24.7294252,30.3773957 C27.3286252,28.9121387 29.5650078,26.9037277 31.0460165,24.1590468 C31.7865952,22.6937898 31.7865952,21.2284596 32.1641335,19.5845787 C33.0934813,15.5605106 37.7402204,14.645617 41.2687683,14.095217 C44.0568117,13.7306868 47.0336987,14.095217 49.4440552,12.62996 C51.1139817,11.7150664 52.4209422,10.8001728 53.7205422,9.33487915 C56.5085857,6.40429191 59.8557248,4.57450468 64.1322117,4.94631745 C68.4086987,5.31084766 71.7558378,6.96201106 75.8434813,4.76048426 C77.702177,3.65975745 79.001777,2.38029702 81.2307248,2.0158034 C81.9713035,1.82997021 82.9006513,1.46544 83.6485161,1.28674298 L78.4426813,1.28674298 C62.2735161,1.65127319 39.5996596,5.13222383 24.3509204,18.4838153 C2.22872478,38.4248366 0.927639685,61.847943 1.11722664,68.616326 L1.11722664,68.9808562 C1.11722664,68.9808562 1.30599577,73.3694179 3.71642664,77.5793923 C3.90519577,77.2148621 3.90519577,77.0361651 3.90519577,76.8503319 L3.90623478,76.8510638 Z" id="Fill-4" fill="#FFE3C1"></path>
                <path d="M52.0434783,82.3404255 L131.967391,80.5106383 L161.706522,73.1914894 L122.673913,14.6382979 C90.4565217,21.9574468 74.3478261,25.6170213 74.3478261,25.6170213 C74.3478261,25.6170213 64.4347826,34.7659574 44.6086957,53.0638298 L52.0434783,82.3404255 Z" id="Path-17" fill="#E3BEAA" fill-rule="nonzero"></path>
                <path d="M158.359011,33.6644255 C153.153176,24.879983 146.277489,17.7467404 138.283239,12.8085106 C128.619509,6.76874894 116.908239,3.65957447 103.707783,3.65957447 C78.2455109,3.65957447 59.099087,12.2581106 46.6476848,29.0899574 C34.1959109,45.9225362 32.8963109,65.4990638 32.8963109,73.0048511 C32.8963109,73.5552145 33.2666002,77.7652255 29.9194239,81.4248 C28.6197867,82.7042238 27.1313804,83.8049872 25.2726848,84.5339745 C36.7951109,84.7198077 57.4299783,84.8985047 79.5447391,84.8985047 C117.088533,84.8985047 142.929978,84.3481413 156.491022,83.2545506 C168.761387,82.1538238 169.872143,73.7411209 169.872143,70.99644 C169.879392,66.2360655 167.650445,49.2183123 158.356966,33.6651209 L158.359011,33.6644255 Z M52.2312065,64.4066809 C50.9315693,64.4066809 49.8134152,63.4917872 49.6320065,62.0264936 C49.6320065,60.7470698 50.5613543,59.6463064 52.0497978,59.4677191 C53.349435,59.4677191 54.4675891,60.3826128 54.6489978,61.8479064 C54.6417303,63.1273302 53.5308809,64.4066809 52.2312065,64.4066809 Z M63.0058793,79.2308851 C61.8877624,79.2308851 60.9583402,78.5018247 60.9583402,77.2151915 C60.9583402,76.1144647 61.6989189,75.1994979 63.0058793,75.1994979 C64.1239963,75.1994979 65.0534185,76.1143915 65.0534185,77.2151915 C65.0534185,78.3159183 64.1240707,79.2308851 63.0058793,79.2308851 Z M88.2878576,64.4066809 C86.9882204,64.4066809 86.0589098,63.4917872 86.0589098,62.3909872 C86.0589098,61.1115634 86.9882576,60.1967064 88.2878576,60.1967064 C89.5874576,60.1967064 90.5168054,61.1116 90.5168054,62.2124 C90.5168054,63.3132 89.5874576,64.2280936 88.2878576,64.4066809 Z M134.015488,52.5130638 C134.015488,51.7840034 134.574547,51.0478068 135.503894,51.0478068 C136.244473,51.0478068 136.992301,51.5981702 136.992301,52.5130638 C136.992301,53.2421243 136.433242,53.9783209 135.503894,53.9783209 C134.756067,53.9783209 134.015488,53.4279574 134.015488,52.5130638 Z M100.558966,52.877594 C99.2593291,52.877594 98.141175,51.9627004 98.141175,50.6833132 C98.141175,49.403926 99.0705228,48.303126 100.370123,48.303126 C101.669723,48.303126 102.787914,49.2180196 102.787914,50.4974068 C102.787914,51.7839668 101.858566,52.6988238 100.558966,52.877594 Z M111.892735,26.717126 C110.774618,26.717126 109.845196,25.9880655 109.845196,24.8873387 C109.845196,23.7866119 110.585774,22.8716451 111.703891,22.8716451 C112.822008,22.8716451 113.75143,23.6007055 113.75143,24.7014323 C113.9402,25.8021591 113.010852,26.717126 111.892735,26.717126 Z M117.839074,61.2964451 C116.169147,61.2964451 114.862187,60.1957183 114.862187,58.5517643 C114.862187,56.9078102 115.980304,55.621177 117.65023,55.621177 C119.320157,55.621177 120.627117,56.7219038 120.627117,58.3658579 C120.815887,60.0169481 119.516249,61.2964451 117.839074,61.2964451 Z M66.5427913,59.8311881 C66.5427913,58.9162945 67.28337,58.187234 68.0311976,58.187234 C68.9605454,58.187234 69.7011241,58.7375974 69.7011241,59.6524911 C69.7011241,60.5673847 68.9605454,61.2964451 68.2127178,61.2964451 C67.28337,61.2964451 66.5427913,60.7460817 66.5427913,59.8311881 Z M67.28337,70.9958179 C65.9837328,70.9958179 64.8655787,70.0809243 64.68417,68.6156306 C64.68417,67.3362068 65.6135178,66.2354434 67.1019613,66.0568562 C68.4015985,66.0568562 69.5197526,66.9717498 69.7011613,68.4370434 C69.7011613,69.8951643 68.5830443,70.9958179 67.28337,70.9958179 Z M75.2772483,40.9836477 C73.6073217,40.9836477 72.3003613,39.7042238 72.1189526,38.0530604 C72.1189526,36.4091064 73.4185898,35.1224732 75.0958396,34.943886 C76.7657661,34.943886 78.0727265,36.2233098 78.2541352,37.8744732 C78.2541352,39.5255634 76.9472491,40.9836477 75.2772483,40.9836477 Z M73.4185526,79.4091796 C72.4892048,79.4091796 71.559857,78.6801191 71.559857,77.5793923 C71.559857,76.6644987 72.3004357,75.7496051 73.4185526,75.7496051 C74.3479004,75.7496051 75.2772483,76.4786655 75.2772483,77.5793923 C75.0884791,78.494286 74.3479004,79.4091796 73.4185526,79.4091796 Z M122.863574,71.725537 C121.934227,71.725537 121.004879,70.9964766 121.004879,70.081583 C121.004879,69.1666894 121.745457,68.2517957 122.674805,68.2517957 C123.604153,68.2517957 124.533501,68.9808562 124.533501,69.8957498 C124.533501,70.8106434 123.792922,71.725537 122.863574,71.725537 Z M96.8418352,74.8347115 C95.7237183,74.8347115 94.9831396,74.1056511 94.7942961,73.0049243 C94.7942961,71.9041974 95.5348748,71.175137 96.6529917,70.9892306 C97.7711087,70.9892306 98.5116874,71.7182911 98.7005309,72.8190179 C98.7005309,73.9197447 97.9527033,74.8347115 96.8418352,74.8347115 Z M107.616508,79.9595796 C106.68716,79.9595796 105.757812,79.2305191 105.757812,78.3156255 C105.757812,77.4007319 106.498391,76.4858383 107.616508,76.4858383 C108.545856,76.4858383 109.475204,77.2148987 109.475204,78.3156255 C109.475204,79.044686 108.545856,79.7808826 107.616508,79.9595796 Z M108.734625,67.5155626 C107.805277,67.5155626 106.875929,66.7865021 106.875929,65.8716085 C106.875929,64.9567149 107.616508,64.0418213 108.545856,64.0418213 C109.475204,64.0418213 110.404552,64.7708817 110.404552,65.6857753 C110.404552,66.6006689 109.663973,67.5155626 108.734625,67.5155626 Z M119.146295,46.1088817 C118.216947,46.1088817 117.287599,45.3798213 117.287599,44.4649277 C117.287599,43.550034 118.028178,42.6351404 118.957525,42.6351404 C119.886873,42.6351404 120.816221,43.3642009 120.816221,44.2790945 C120.816221,45.1939881 120.075642,46.1088817 119.146295,46.1088817 Z M141.820523,65.508286 C140.702406,65.508286 139.772984,64.7792255 139.772984,63.6784987 C139.772984,62.5777719 140.513562,61.6628051 141.631679,61.6628051 C142.749796,61.6628051 143.679218,62.3918655 143.679218,63.4925923 C143.86072,64.5933191 142.931391,65.508286 141.820523,65.508286 Z" id="Fill-5" fill="#FFE3C1"></path>
                <path d="M66.9130435,9.33557447 C66.1724648,10.4363013 64.6840957,10.8008315 63.3844957,11.3512681 C61.5258,12.2661617 59.8559478,13.7314553 57.8084087,14.6463489 C55.2092087,15.9257728 52.9728261,17.5769362 50.7438783,19.5853106 C47.2153304,22.6944851 44.9789478,26.9044596 41.8206522,30.7499404 C36.2445652,37.3401021 33.0862696,45.5741447 31.9680783,53.9864085 C31.0387304,61.1196511 30.2981517,68.8106128 27.8804348,75.757217 C26.7623178,78.8663915 26.0217391,80.6961787 22.3043478,82.1614723 C20.4456522,82.8905328 18.9572087,82.7118357 16.9171043,82.8905328 C15.2471778,83.076366 10.600513,82.8905328 9.11206957,81.9756391 C6.69427826,80.5103821 9.48235891,77.0366774 10.9707652,75.5713838 C13.3885565,73.5556902 14.877,72.6407966 14.499313,68.9812221 C14.3105439,65.3216477 11.7112696,62.2124732 12.4517739,58.731486 C13.7514111,51.7768306 21.9340957,51.412337 25.4626435,46.2874689 C27.5101826,43.3568817 26.2032222,39.3328136 27.8804348,36.5881328 C28.9985517,34.7583455 32.3383304,34.0293583 34.0156174,32.7426519 C37.173913,30.5483711 39.4028609,26.7028902 40.3322087,22.8647285 C41.0727874,20.1200477 40.5209778,18.654754 43.6793478,18.104354 C46.2785478,17.7398238 47.7669913,17.9185209 50.1847826,16.8249302 C52.0434783,16.0958698 54.0910174,15.5455064 55.949713,14.444743 C57.8084087,13.3440162 58.548913,11.7000621 60.4076087,10.4206749 C62.2663043,9.14125106 64.6840957,9.14125106 66.9130435,9.14125106" id="Fill-6" fill="#CA8E87"></path>
            </g>
        </g>
    </g>
</svg>